<svg xmlns="http://www.w3.org/2000/svg" xmlns:xlink="http://www.w3.org/1999/xlink" viewBox="0 0 32 46">
    <defs>
        <path id="agnesd9tha" d="M9.377-.001L19.532 0l.274.004c2.462.065 4.734 1.008 6.526 2.695 1.766 1.767 2.776 4.122 2.887 6.678l-.002 10.155-.003.274c-.065 2.462-1.01 4.734-2.695 6.526-1.74 1.848-4.095 2.885-6.618 2.885h-3.36v10.537l-.006.142c-.028.371-.171.689-.449.966-.343.344-.601.454-.985.454-.434 0-.796-.142-1.109-.454-.28-.28-.454-.68-.454-1.108V29.217H9.686l-.275-.003c-2.462-.065-4.734-1.01-6.526-2.695C1.12 24.75.11 22.397 0 19.84L0 9.686l.004-.275C.069 6.95 1.012 4.677 2.699 2.885 4.466 1.12 6.82.11 9.377 0z"/>
        <path id="nvax6nuqkc" d="M10.505 4.228h3.921c.817 0 1.487.242 1.487 3.876v3.173c.006.825-.686 1.19-1.25 1.33 0 0-1.585.402-4.163.406-2.577-.004-4.16-.406-4.16-.406-.566-.14-1.258-.505-1.252-1.33V8.104c0-3.634.67-3.876 1.487-3.876h3.93zm4.033 12.953c-.876 0-1.587-.71-1.587-1.587 0-.876.71-1.587 1.587-1.587.876 0 1.586.71 1.586 1.587 0 .876-.71 1.587-1.586 1.587zm-8.075 0c-.876 0-1.586-.71-1.586-1.587 0-.876.71-1.587 1.586-1.587.877 0 1.587.71 1.587 1.587 0 .876-.71 1.587-1.587 1.587zm4.033-15.176h3.045c.145 0 .264.118.264.264v.945c0 .145-.12.264-.264.264H7.46c-.145 0-.264-.12-.264-.264v-.945c0-.146.12-.264.264-.264h3.036zm.01 16.367h4.482s.05 1.402 1.004 1.438h.841c.427 0 .906-.408.906-1.087 0 0-.021-9.002-.029-9.461.07.03.146.05.226.05h.56c.302 0 .548-.247.548-.55v-2.29c0-.303-.246-.55-.548-.55h-.56c-.129 0-.245.047-.339.12-.03-1.108-.062-1.916-.062-1.916 0-1.278-1.257-2.82-2.837-2.82l-4.197-.002-4.198.003c-1.58 0-2.836 1.541-2.836 2.82 0 0-.031.807-.063 1.916-.094-.074-.21-.121-.338-.121h-.56c-.302 0-.55.247-.55.55v2.29c0 .303.248.55.55.55h.56c.08 0 .156-.02.225-.05-.007.459-.029 9.461-.029 9.461 0 .68.48 1.087.907 1.087h.84c.954-.036 1.004-1.438 1.004-1.438h4.492z"/>
    </defs>
    <g fill="none" fill-rule="evenodd">
        <g>
            <g transform="translate(-1250 -427) translate(1250 427)">
                <ellipse cx="16.348" cy="43.13" fill="#2C384C" opacity=".2" rx="6.609" ry="2.087"/>
                <g transform="translate(1.391 1.391)">
                    <mask id="gntuqdw5eb" fill="#fff">
                        <use xlink:href="#agnesd9tha"/>
                    </mask>
                    <use fill="#6A6A6A" fill-rule="nonzero" xlink:href="#agnesd9tha"/>
                    <g fill="#c80303" mask="url(#gntuqdw5eb)">
                        <path d="M0 0L32 0 32 44.522 0 44.522z" transform="translate(-1.391 -1.391)"/>
                    </g>
                </g>
                <path fill="#FFF" fill-rule="nonzero" d="M20.923 0c2.954 0 5.662 1.108 7.754 3.077 2.092 2.092 3.2 4.8 3.323 7.63v10.216c0 2.954-1.108 5.662-3.077 7.754-1.97 2.092-4.677 3.323-7.63 3.323h-1.97v9.145c0 .739-.246 1.477-.861 2.092-.616.616-1.231.862-1.97.862-.738 0-1.477-.246-2.092-.862-.492-.492-.862-1.23-.862-2.092V32h-2.461c-2.954 0-5.662-1.108-7.754-3.077-2.092-2.092-3.2-4.8-3.323-7.63V11.076c0-2.954 1.108-5.662 3.077-7.754 2.092-2.092 4.8-3.2 7.63-3.323h10.216zM10.768 1.39c-2.556.111-4.91 1.12-6.678 2.887-1.686 1.791-2.63 4.064-2.695 6.526l-.004.274-.001 10.155c.111 2.556 1.12 4.91 2.887 6.678 1.791 1.686 4.064 2.63 6.526 2.695l.274.004h3.853v10.536c0 .428.174.829.454 1.109.312.312.675.454 1.108.454.384 0 .642-.111.986-.454.277-.278.42-.595.448-.967l.006-.142V30.61h3.36c2.524 0 4.879-1.038 6.618-2.886 1.686-1.791 2.63-4.064 2.695-6.526l.004-.274.001-10.155c-.111-2.556-1.12-4.91-2.887-6.678-1.791-1.686-4.064-2.63-6.526-2.695l-.274-.004-10.155-.001z"/>
                <g transform="translate(5.565 5.565)">
                    <mask id="xr3ve7bj7d" fill="#fff">
                        <use xlink:href="#nvax6nuqkc"/>
                    </mask>
                    <use fill="#000" xlink:href="#nvax6nuqkc"/>
                    <g fill="#FFF" mask="url(#xr3ve7bj7d)">
                        <path d="M0 0H20.87V20.87H0z"/>
                    </g>
                </g>
            </g>
        </g>
    </g>
</svg>
