<?xml version="1.0" encoding="UTF-8"?>
<svg width="26px" height="16px" viewBox="0 0 26 16" version="1.1" xmlns="http://www.w3.org/2000/svg" xmlns:xlink="http://www.w3.org/1999/xlink">
    <!-- Generator: Sketch 63 (92445) - https://sketch.com -->
    <title>icon-occupancy-available space</title>
    <desc>Created with Sketch.</desc>
    <g id="Assets" stroke="none" stroke-width="1" fill="none" fill-rule="evenodd">
        <g transform="translate(-856.000000, -2055.000000)" fill-rule="nonzero" id="icon-occupancy-available-space">
            <g transform="translate(856.000000, 2055.000000)">
                <path d="M4.1083871,3.61290323 C4.68988949,3.61290323 5.16129032,4.0953402 5.16129032,4.69045636 L5.16129032,9.562093 C5.16129032,10.1572091 4.68988949,10.6396461 4.1083871,10.6396461 L4.1083871,14.9224469 C4.1083871,15.517563 3.63698627,16 3.05548387,16 L2.10580645,16 C1.52430406,16 1.05290323,15.517563 1.05290323,14.9224469 L1.05290323,10.6396461 C0.471400831,10.6396461 1.54098956e-13,10.1572091 1.54098956e-13,9.562093 L1.54098956e-13,4.69045636 C1.54098956e-13,4.0953402 0.471400831,3.61290323 1.05290323,3.61290323 L4.1083871,3.61290323 Z M2.58064516,2.30926389e-14 C3.43579574,2.30926389e-14 4.12903226,0.693236516 4.12903226,1.5483871 C4.12903226,2.40353767 3.43579574,3.09677419 2.58064516,3.09677419 C1.72549459,3.09677419 1.03225806,2.40353767 1.03225806,1.5483871 C1.03225806,0.693236516 1.72549459,2.30926389e-14 2.58064516,2.30926389e-14 Z" id="Combined-Shape-Copy-35" fill="#2C384C"></path>
                <path d="M10.8180645,3.61290323 C11.3995669,3.61290323 11.8709677,4.0953402 11.8709677,4.69045636 L11.8709677,9.562093 C11.8709677,10.1572091 11.3995669,10.6396461 10.8180645,10.6396461 L10.8180645,14.9224469 C10.8180645,15.517563 10.3466637,16 9.76516129,16 L8.81548387,16 C8.23398148,16 7.76258065,15.517563 7.76258065,14.9224469 L7.76258065,10.6396461 C7.18107825,10.6396461 6.70967742,10.1572091 6.70967742,9.562093 L6.70967742,4.69045636 C6.70967742,4.0953402 7.18107825,3.61290323 7.76258065,3.61290323 L10.8180645,3.61290323 Z M17.5277419,3.61290323 C18.1092443,3.61290323 18.5806452,4.0953402 18.5806452,4.69045636 L18.5806452,9.562093 C18.5806452,10.1572091 18.1092443,10.6396461 17.5277419,10.6396461 L17.5277419,14.9224469 C17.5277419,15.517563 17.0563411,16 16.4748387,16 L15.5251613,16 C14.9436589,16 14.4722581,15.517563 14.4722581,14.9224469 L14.4722581,10.6396461 C13.8907557,10.6396461 13.4193548,10.1572091 13.4193548,9.562093 L13.4193548,4.69045636 C13.4193548,4.0953402 13.8907557,3.61290323 14.4722581,3.61290323 L17.5277419,3.61290323 Z M24.2374194,3.61290323 C24.8189217,3.61290323 25.2903226,4.0953402 25.2903226,4.69045636 L25.2903226,9.562093 C25.2903226,10.1572091 24.8189217,10.6396461 24.2374194,10.6396461 L24.2374194,14.9224469 C24.2374194,15.517563 23.7660185,16 23.1845161,16 L22.2348387,16 C21.6533363,16 21.1819355,15.517563 21.1819355,14.9224469 L21.1819355,10.6396461 C20.6004331,10.6396461 20.1290323,10.1572091 20.1290323,9.562093 L20.1290323,4.69045636 C20.1290323,4.0953402 20.6004331,3.61290323 21.1819355,3.61290323 L24.2374194,3.61290323 Z M9.29032258,4.70734562e-14 C10.1454732,4.70734562e-14 10.8387097,0.693236516 10.8387097,1.5483871 C10.8387097,2.40353767 10.1454732,3.09677419 9.29032258,3.09677419 C8.43517201,3.09677419 7.74193548,2.40353767 7.74193548,1.5483871 C7.74193548,0.693236516 8.43517201,4.70734562e-14 9.29032258,4.70734562e-14 Z M16,4.70734562e-14 C16.8551506,4.70734562e-14 17.5483871,0.693236516 17.5483871,1.5483871 C17.5483871,2.40353767 16.8551506,3.09677419 16,3.09677419 C15.1448494,3.09677419 14.4516129,2.40353767 14.4516129,1.5483871 C14.4516129,0.693236516 15.1448494,4.70734562e-14 16,4.70734562e-14 Z M22.7096774,4.70734562e-14 C23.564828,4.70734562e-14 24.2580645,0.693236516 24.2580645,1.5483871 C24.2580645,2.40353767 23.564828,3.09677419 22.7096774,3.09677419 C21.8545268,3.09677419 21.1612903,2.40353767 21.1612903,1.5483871 C21.1612903,0.693236516 21.8545268,4.70734562e-14 22.7096774,4.70734562e-14 Z" id="Combined-Shape" fill="#B8BCC3"></path>
            </g>
        </g>
    </g>
</svg>