<?xml version="1.0" encoding="utf-8"?>
<!-- Generator: Adobe Illustrator 24.3.0, SVG Export Plug-In . SVG Version: 6.00 Build 0)  -->
<svg version="1.1" id="Layer_1" xmlns="http://www.w3.org/2000/svg" xmlns:xlink="http://www.w3.org/1999/xlink" x="0px" y="0px"
	 viewBox="0 0 26 16" enable-background="new 0 0 26 16" xml:space="preserve">
<title>Empty</title>
<desc>Created with Sketch.</desc>
<g id="Assets">
	<g id="icon-occupancy-empty" transform="translate(-804.000000, -2055.000000)">
		<path fill="#5B6474" d="M808.1,2058.6c0.6,0,1.1,0.5,1.1,1.1v4.9c0,0.6-0.5,1.1-1.1,1.1v4.3c0,0.6-0.5,1.1-1.1,1.1h-0.9
			c-0.6,0-1.1-0.5-1.1-1.1v-4.3c-0.6,0-1.1-0.5-1.1-1.1v-4.9c0-0.6,0.5-1.1,1.1-1.1H808.1z M814.8,2058.6c0.6,0,1.1,0.5,1.1,1.1v4.9
			c0,0.6-0.5,1.1-1.1,1.1v4.3c0,0.6-0.5,1.1-1.1,1.1h-0.9c-0.6,0-1.1-0.5-1.1-1.1v-4.3c-0.6,0-1.1-0.5-1.1-1.1v-4.9
			c0-0.6,0.5-1.1,1.1-1.1H814.8z M821.5,2058.6c0.6,0,1.1,0.5,1.1,1.1v4.9c0,0.6-0.5,1.1-1.1,1.1v4.3c0,0.6-0.5,1.1-1.1,1.1h-0.9
			c-0.6,0-1.1-0.5-1.1-1.1v-4.3c-0.6,0-1.1-0.5-1.1-1.1v-4.9c0-0.6,0.5-1.1,1.1-1.1H821.5z M828.2,2058.6c0.6,0,1.1,0.5,1.1,1.1v4.9
			c0,0.6-0.5,1.1-1.1,1.1v4.3c0,0.6-0.5,1.1-1.1,1.1h-0.9c-0.6,0-1.1-0.5-1.1-1.1v-4.3c-0.6,0-1.1-0.5-1.1-1.1v-4.9
			c0-0.6,0.5-1.1,1.1-1.1H828.2z M806.6,2055c0.9,0,1.5,0.7,1.5,1.5c0,0.9-0.7,1.5-1.5,1.5c-0.9,0-1.5-0.7-1.5-1.5
			C805,2055.7,805.7,2055,806.6,2055z M813.3,2055c0.9,0,1.5,0.7,1.5,1.5c0,0.9-0.7,1.5-1.5,1.5c-0.9,0-1.5-0.7-1.5-1.5
			C811.7,2055.7,812.4,2055,813.3,2055z M820,2055c0.9,0,1.5,0.7,1.5,1.5c0,0.9-0.7,1.5-1.5,1.5s-1.5-0.7-1.5-1.5
			S819.1,2055,820,2055z M826.7,2055c0.9,0,1.5,0.7,1.5,1.5c0,0.9-0.7,1.5-1.5,1.5c-0.9,0-1.5-0.7-1.5-1.5S825.9,2055,826.7,2055z"
			/>
	</g>
</g>
</svg>
