<?xml version="1.0" encoding="UTF-8"?>
<svg width="26px" height="16px" viewBox="0 0 26 16" version="1.1" xmlns="http://www.w3.org/2000/svg" xmlns:xlink="http://www.w3.org/1999/xlink">
    <!-- Generator: Sketch 63 (92445) - https://sketch.com -->
    <title>icon-occupancy-empty</title>
    <desc>Created with Sketch.</desc>
    <g id="Assets" stroke="none" stroke-width="1" fill="none" fill-rule="evenodd">
        <g transform="translate(-804.000000, -2055.000000)" fill="#B8BCC3" fill-rule="nonzero" id="icon-occupancy-empty">
            <path d="M808.108387,2058.6129 C808.689889,2058.6129 809.16129,2059.09534 809.16129,2059.69046 L809.16129,2064.56209 C809.16129,2065.15721 808.689889,2065.63965 808.108387,2065.63965 L808.108387,2069.92245 C808.108387,2070.51756 807.636986,2071 807.055484,2071 L806.105806,2071 C805.524304,2071 805.052903,2070.51756 805.052903,2069.92245 L805.052903,2065.63965 C804.471401,2065.63965 804,2065.15721 804,2064.56209 L804,2059.69046 C804,2059.09534 804.471401,2058.6129 805.052903,2058.6129 L808.108387,2058.6129 Z M814.818065,2058.6129 C815.399567,2058.6129 815.870968,2059.09534 815.870968,2059.69046 L815.870968,2064.56209 C815.870968,2065.15721 815.399567,2065.63965 814.818065,2065.63965 L814.818065,2069.92245 C814.818065,2070.51756 814.346664,2071 813.765161,2071 L812.815484,2071 C812.233981,2071 811.762581,2070.51756 811.762581,2069.92245 L811.762581,2065.63965 C811.181078,2065.63965 810.709677,2065.15721 810.709677,2064.56209 L810.709677,2059.69046 C810.709677,2059.09534 811.181078,2058.6129 811.762581,2058.6129 L814.818065,2058.6129 Z M821.527742,2058.6129 C822.109244,2058.6129 822.580645,2059.09534 822.580645,2059.69046 L822.580645,2064.56209 C822.580645,2065.15721 822.109244,2065.63965 821.527742,2065.63965 L821.527742,2069.92245 C821.527742,2070.51756 821.056341,2071 820.474839,2071 L819.525161,2071 C818.943659,2071 818.472258,2070.51756 818.472258,2069.92245 L818.472258,2065.63965 C817.890756,2065.63965 817.419355,2065.15721 817.419355,2064.56209 L817.419355,2059.69046 C817.419355,2059.09534 817.890756,2058.6129 818.472258,2058.6129 L821.527742,2058.6129 Z M828.237419,2058.6129 C828.818922,2058.6129 829.290323,2059.09534 829.290323,2059.69046 L829.290323,2064.56209 C829.290323,2065.15721 828.818922,2065.63965 828.237419,2065.63965 L828.237419,2069.92245 C828.237419,2070.51756 827.766019,2071 827.184516,2071 L826.234839,2071 C825.653336,2071 825.181935,2070.51756 825.181935,2069.92245 L825.181935,2065.63965 C824.600433,2065.63965 824.129032,2065.15721 824.129032,2064.56209 L824.129032,2059.69046 C824.129032,2059.09534 824.600433,2058.6129 825.181935,2058.6129 L828.237419,2058.6129 Z M806.580645,2055 C807.435796,2055 808.129032,2055.69324 808.129032,2056.54839 C808.129032,2057.40354 807.435796,2058.09677 806.580645,2058.09677 C805.725495,2058.09677 805.032258,2057.40354 805.032258,2056.54839 C805.032258,2055.69324 805.725495,2055 806.580645,2055 Z M813.290323,2055 C814.145473,2055 814.83871,2055.69324 814.83871,2056.54839 C814.83871,2057.40354 814.145473,2058.09677 813.290323,2058.09677 C812.435172,2058.09677 811.741935,2057.40354 811.741935,2056.54839 C811.741935,2055.69324 812.435172,2055 813.290323,2055 Z M820,2055 C820.855151,2055 821.548387,2055.69324 821.548387,2056.54839 C821.548387,2057.40354 820.855151,2058.09677 820,2058.09677 C819.144849,2058.09677 818.451613,2057.40354 818.451613,2056.54839 C818.451613,2055.69324 819.144849,2055 820,2055 Z M826.709677,2055 C827.564828,2055 828.258065,2055.69324 828.258065,2056.54839 C828.258065,2057.40354 827.564828,2058.09677 826.709677,2058.09677 C825.854527,2058.09677 825.16129,2057.40354 825.16129,2056.54839 C825.16129,2055.69324 825.854527,2055 826.709677,2055 Z"></path>
        </g>
    </g>
</svg>