<?xml version="1.0" encoding="utf-8"?>
<!-- Generator: Adobe Illustrator 24.3.0, SVG Export Plug-In . SVG Version: 6.00 Build 0)  -->
<svg version="1.1" id="Layer_1" xmlns="http://www.w3.org/2000/svg" xmlns:xlink="http://www.w3.org/1999/xlink" x="0px" y="0px"
	 viewBox="0 0 26 16" enable-background="new 0 0 26 16" xml:space="preserve">
<title>Few seats available</title>
<desc>Created with Sketch.</desc>
<g id="Assets">
	<g id="icon-occupancy-distancing-required" transform="translate(-908.000000, -2055.000000)">
		<g transform="translate(908.000000, 2055.000000)">
			<path id="Combined-Shape" fill="#FFFFFF" d="M4.1,3.6c0.6,0,1.1,0.5,1.1,1.1v4.9c0,0.6-0.5,1.1-1.1,1.1V15c0,0.6-0.5,1.1-1.1,1.1
				H2.1C1.5,16.1,1,15.6,1,15v-4.3c-0.5-0.1-1-0.5-1-1.1V4.7c0-0.6,0.5-1.1,1.1-1.1H4.1z M10.8,3.6c0.6,0,1.1,0.5,1.1,1.1v4.9
				c0,0.6-0.5,1.1-1.1,1.1V15c0,0.6-0.5,1.1-1.1,1.1H8.8c-0.6,0-1.1-0.5-1.1-1.1v-4.3c-0.6,0-1.1-0.5-1.1-1.1V4.7
				c0-0.6,0.5-1.1,1.1-1.1H10.8z M2.6,0c0.9,0,1.5,0.7,1.5,1.5S3.4,3.1,2.6,3.1S1,2.4,1,1.5S1.7,0,2.6,0z M9.3,0
				c0.9,0,1.5,0.7,1.5,1.5S10.1,3,9.3,3C8.4,3,7.8,2.3,7.8,1.5S8.4,0,9.3,0z"/>
			<path id="Combined-Shape_1_" fill="#5B6474" d="M17.5,3.6c0.6,0,1.1,0.5,1.1,1.1v4.9c0,0.6-0.5,1.1-1.1,1.1V15
				c0,0.6-0.5,1.1-1.1,1.1h-0.9c-0.6,0-1.1-0.5-1.1-1.1v-4.3c-0.6,0-1.1-0.5-1.1-1.1V4.7c0-0.6,0.5-1.1,1.1-1.1H17.5z M24.2,3.6
				c0.6,0,1.1,0.5,1.1,1.1v4.9c0,0.6-0.5,1.1-1.1,1.1V15c0,0.6-0.5,1.1-1.1,1.1h-0.9c-0.6,0-1.1-0.5-1.1-1.1v-4.3
				c-0.6,0-1.1-0.5-1.1-1.1V4.7c0-0.6,0.5-1.1,1.1-1.1H24.2z M16,0c0.9,0,1.5,0.7,1.5,1.5S16.9,3.1,16,3.1s-1.5-0.7-1.5-1.5
				S15.1,0,16,0z M22.7,0c0.9,0,1.5,0.7,1.5,1.5S23.5,3,22.7,3c-0.9,0-1.5-0.7-1.5-1.5S21.9,0,22.7,0z"/>
		</g>
	</g>
</g>
</svg>
