<?xml version="1.0" encoding="utf-8"?>
<!-- Generator: Adobe Illustrator 24.3.0, SVG Export Plug-In . SVG Version: 6.00 Build 0)  -->
<svg version="1.1" id="Layer_1" xmlns="http://www.w3.org/2000/svg" xmlns:xlink="http://www.w3.org/1999/xlink" x="0px" y="0px"
	 viewBox="0 0 26 16" enable-background="new 0 0 26 16" xml:space="preserve">
<title>Full</title>
<desc>Created with Sketch.</desc>
<g id="Assets">
	<g id="icon-occupancy-not-accepting-passengers" transform="translate(-1007.000000, -2055.000000)">
		<path fill="#D52923" d="M1011.1,2058.6c0.6,0,1.1,0.5,1.1,1.1v4.9c0,0.6-0.5,1.1-1.1,1.1v4.3c0,0.6-0.5,1.1-1.1,1.1h-0.9
			c-0.6,0-1.1-0.5-1.1-1.1v-4.3c-0.6,0-1.1-0.5-1.1-1.1v-4.9c0-0.6,0.5-1.1,1.1-1.1H1011.1z M1017.8,2058.6c0.6,0,1.1,0.5,1.1,1.1
			v4.9c0,0.6-0.5,1.1-1.1,1.1v4.3c0,0.6-0.5,1.1-1.1,1.1h-0.9c-0.6,0-1.1-0.5-1.1-1.1v-4.3c-0.6,0-1.1-0.5-1.1-1.1v-4.9
			c0-0.6,0.5-1.1,1.1-1.1H1017.8z M1024.5,2058.6c0.6,0,1.1,0.5,1.1,1.1v4.9c0,0.6-0.5,1.1-1.1,1.1v4.3c0,0.6-0.5,1.1-1.1,1.1h-0.9
			c-0.6,0-1.1-0.5-1.1-1.1v-4.3c-0.6,0-1.1-0.5-1.1-1.1v-4.9c0-0.6,0.5-1.1,1.1-1.1H1024.5z M1031.2,2058.6c0.6,0,1.1,0.5,1.1,1.1
			v4.9c0,0.6-0.5,1.1-1.1,1.1v4.3c0,0.6-0.5,1.1-1.1,1.1h-0.9c-0.6,0-1.1-0.5-1.1-1.1v-4.3c-0.6,0-1.1-0.5-1.1-1.1v-4.9
			c0-0.6,0.5-1.1,1.1-1.1H1031.2z M1009.6,2055c0.9,0,1.5,0.7,1.5,1.5c0,0.9-0.7,1.5-1.5,1.5s-1.5-0.7-1.5-1.5
			C1008,2055.7,1008.7,2055,1009.6,2055z M1016.3,2055c0.9,0,1.5,0.7,1.5,1.5c0,0.9-0.7,1.5-1.5,1.5c-0.9,0-1.5-0.7-1.5-1.5
			C1014.7,2055.7,1015.4,2055,1016.3,2055z M1023,2055c0.9,0,1.5,0.7,1.5,1.5c0,0.9-0.7,1.5-1.5,1.5s-1.5-0.7-1.5-1.5
			C1021.5,2055.7,1022.1,2055,1023,2055z M1029.7,2055c0.9,0,1.5,0.7,1.5,1.5c0,0.9-0.7,1.5-1.5,1.5c-0.9,0-1.5-0.7-1.5-1.5
			C1028.2,2055.7,1028.9,2055,1029.7,2055z"/>
	</g>
</g>
</svg>
