<svg width="78" height="20" xmlns="http://www.w3.org/2000/svg" version="1.1">
 <title>tag-fill</title>

 <g>
  <title>Layer 1</title>
  <g stroke="null" fill-rule="evenodd" fill="none" id="Page-2">
   <g stroke="null" id="2-Colour-&amp;-Shape">
    <g stroke="null" id="tag-fill">
     <path stroke="null" id="svg_1" fill="#FFFFFF" d="m67.88489,0c0.31991,0 0.63122,0.02717 0.92989,0.07854c0.7076,0.08668 1.3932,0.31238 1.97766,0.68141c0.33751,0.21311 0.62538,0.46548 0.85219,0.74709l5.59598,6.94832c0.76596,0.95106 0.75947,2.13536 -0.01686,3.08184l-5.66977,6.91236c-0.30307,0.36949 -0.69714,0.67361 -1.14829,0.90618c-0.69343,0.4038 -1.56898,0.64426 -2.5208,0.64426l-63.8118,0c-2.2495,0 -4.07309,-1.34315 -4.07309,-3l0,-14c0,-1.65685 1.82359,-3 4.07309,-3l63.8118,0z"/>
     <path stroke="null" id="svg_2" fill-rule="nonzero" fill="#2C384C" d="m67.88489,0c0.21328,0 0.42272,0.01207 0.62715,0.03534l0.30274,0.0432c0.7076,0.08668 1.3932,0.31238 1.97766,0.68141c0.33751,0.21311 0.62538,0.46548 0.85219,0.74709l5.59598,6.94832c0.76596,0.95106 0.75947,2.13536 -0.01686,3.08184l-5.66977,6.91236c-0.25256,0.30791 -0.56831,0.57042 -0.92762,0.78396l-0.22067,0.12222c-0.69343,0.4038 -1.56898,0.64426 -2.5208,0.64426l-63.8118,0c-2.2495,0 -4.07309,-1.34315 -4.07309,-3l0,-14c0,-1.65685 1.82359,-3 4.07309,-3l63.8118,0zm0,1l-63.8118,0c-1.4315,0 -2.6043,0.81588 -2.70794,1.85074l-0.00745,0.14926l0,14c0,1.05436 1.10772,1.91817 2.51275,1.99451l0.20265,0.00549l63.8118,0c0.61978,0 1.20382,-0.15214 1.74228,-0.46352c0.24506,-0.12634 0.46018,-0.28195 0.63824,-0.46327l0.12648,-0.14074l5.66976,-6.91237c0.47775,-0.58245 0.51818,-1.29999 0.11994,-1.90562l-0.1087,-0.14893l-5.59598,-6.94832c-0.15121,-0.18775 -0.34312,-0.35599 -0.56813,-0.49806c-0.38168,-0.241 -0.8339,-0.39503 -1.40276,-0.46683c-0.13426,-0.0231 -0.27136,-0.03866 -0.41065,-0.04647l-0.21048,-0.00587z"/>
    </g>
   </g>
  </g>
 </g>
</svg>