<svg xmlns="http://www.w3.org/2000/svg" xmlns:xlink="http://www.w3.org/1999/xlink" width="40" height="40" viewBox="0 0 40 40">
    <defs>
        <path id="a" d="M6.676 14.487a20.33 20.33 0 0 0 .504 3.902 6.03 6.03 0 0 0-2.933 5.175c0 3.332 2.66 6.032 5.942 6.032.623 0 1.208-.124 1.772-.303a62.053 62.053 0 0 0 3.254 4.694c-2.476 3.192-5.026 5.428-5.026 5.428S.586 31.045.586 23.504c0-4.102 2.528-7.6 6.09-9.017zM24.85.587c8.046 0 14.564 6.564 14.564 14.663 0 11.405-14.564 24.067-14.564 24.067S10.29 26.655 10.29 15.25c0-8.1 6.52-14.663 14.56-14.663zm0 5.628c-4.975 0-9.004 4.087-9.004 9.127 0 5.039 4.03 9.125 9.004 9.125 4.976 0 9.008-4.086 9.008-9.125 0-5.04-4.032-9.127-9.008-9.127z"/>
    </defs>
    <g fill="none" fill-rule="evenodd">
        <mask id="b" fill="#fff">
            <use xlink:href="#a"/>
        </mask>
        <use fill="#000" xlink:href="#a"/>
        <g fill="#399CDB" mask="url(#b)">
            <path d="M0 0h40v40H0z"/>
        </g>
    </g>
</svg>
